<?xml version="1.0" encoding="UTF-8" standalone="no"?>
<!-- Generator: Adobe Illustrator 12.0.0, SVG Export Plug-In . SVG Version: 6.00 Build 51448)  -->
<svg
   xmlns:dc="http://purl.org/dc/elements/1.1/"
   xmlns:cc="http://web.resource.org/cc/"
   xmlns:rdf="http://www.w3.org/1999/02/22-rdf-syntax-ns#"
   xmlns:svg="http://www.w3.org/2000/svg"
   xmlns="http://www.w3.org/2000/svg"
   xmlns:sodipodi="http://sodipodi.sourceforge.net/DTD/sodipodi-0.dtd"
   xmlns:inkscape="http://www.inkscape.org/namespaces/inkscape"
   version="1.0"
   baseProfile="basic"
   id="Layer_1"
   width="85"
   height="25"
   viewBox="0 0 84.188 21.365"
   overflow="visible"
   enable-background="new 0 0 84.188 21.365"
   xml:space="preserve"
   sodipodi:version="0.32"
   inkscape:version="0.44.1"
   sodipodi:docname="nc17.svg"
   sodipodi:docbase="C:\temp\webdesign"><metadata
   id="metadata18"><rdf:RDF><cc:Work
       rdf:about=""><dc:format>image/svg+xml</dc:format><dc:type
         rdf:resource="http://purl.org/dc/dcmitype/StillImage" /></cc:Work></rdf:RDF></metadata><defs
   id="defs16" /><sodipodi:namedview
   inkscape:window-height="729"
   inkscape:window-width="1095"
   inkscape:pageshadow="2"
   inkscape:pageopacity="0.0"
   guidetolerance="10.0"
   gridtolerance="10.0"
   objecttolerance="10.0"
   borderopacity="1.0"
   bordercolor="#666666"
   pagecolor="#ffffff"
   id="base"
   width="85px"
   height="25px"
   inkscape:zoom="4.5612199"
   inkscape:cx="42.094002"
   inkscape:cy="10.6825"
   inkscape:window-x="22"
   inkscape:window-y="29"
   inkscape:current-layer="Layer_1" />
<g
   id="g3"
   transform="matrix(0.957635,0,0,0.957635,1.783298,0.45254)">
	<path
   d="M 7.723,20.774 C 7.635,20.922 7.487,21.01 7.222,21.01 L 1.408,21.01 C 1.172,21.01 0.877,20.951 1.024,20.449 L 1.201,19.888 C 1.319,19.505 1.555,19.475 1.762,19.416 C 2.5,19.27 3.267,18.738 3.267,17.47 L 3.267,3.954 C 2.736,3.334 1.585,2.478 0.552,2.036 C -0.009,1.829 -0.068,1.564 0.051,1.269 L 0.287,0.59 C 0.376,0.472 0.523,0.354 0.789,0.354 L 8.196,0.354 C 8.934,0.413 9.318,0.944 9.848,1.564 L 18.848,13.486 L 18.907,13.486 L 18.907,3.895 C 18.907,2.449 18.465,2.243 17.018,1.889 C 16.635,1.83 16.576,1.535 16.693,1.269 L 16.93,0.59 C 17.018,0.442 17.166,0.354 17.431,0.354 L 23.244,0.354 C 23.48,0.354 23.775,0.413 23.628,0.915 L 23.451,1.476 C 23.333,1.859 23.097,1.889 22.89,1.948 C 22.152,2.095 21.385,2.627 21.385,3.895 L 21.385,20.037 C 21.385,20.627 21.119,21.011 20.588,21.011 L 17.165,21.011 C 17.018,21.011 16.841,20.804 15.926,19.683 L 5.805,6.02 L 5.746,6.02 L 5.746,17.47 C 5.746,18.916 6.188,19.122 7.635,19.476 C 8.018,19.535 8.077,19.83 7.959,20.096 L 7.723,20.774 z "
   id="path5" />
	<path
   d="M 42.267,19.417 C 42.09,19.801 41.972,20.155 41.677,20.361 C 40.969,20.922 39.11,21.364 36.513,21.364 C 29.195,21.364 24.591,16.938 24.591,10.505 C 24.591,4.722 29.43,0 36.276,0 C 39.345,0 42.267,0.974 43.24,1.682 C 43.358,1.77 43.387,1.889 43.387,2.095 L 43.387,4.308 C 43.387,4.456 43.269,4.662 43.151,4.722 L 41.972,5.43 C 41.53,5.725 39.877,2.155 36.218,2.155 C 32.618,2.155 31.025,5.46 31.025,10.27 C 31.025,16.172 33.444,18.71 37.458,18.71 C 38.667,18.71 41.058,18.09 42.297,16.29 C 42.622,15.818 43.448,16.408 43.33,16.644 L 42.267,19.417 z "
   id="path7" />
	<path
   d="M 44.066,11.945 L 44.066,9.23 L 51.414,9.23 L 51.414,11.945 L 44.066,11.945 z "
   id="path9" />
	<path
   d="M 63.129,17.115 C 63.129,18.001 63.572,18.473 63.867,18.709 C 64.959,19.506 67.497,19.063 67.054,19.831 L 66.612,20.598 C 66.376,21.07 65.844,21.011 65.255,21.011 L 54.956,21.011 C 54.159,21.011 53.303,21.129 53.569,20.45 L 53.894,19.624 C 54.101,19.181 55.959,19.299 56.461,18.886 C 56.844,18.62 57.524,18.178 57.524,17.115 L 57.524,4.78 C 57.524,3.246 55.93,3.629 54.396,4.131 L 53.747,4.367 C 53.54,4.426 53.363,4.367 53.275,4.101 L 53.098,3.157 C 53.01,2.892 53.01,2.626 53.305,2.508 L 63.129,0 L 63.129,17.115 z "
   id="path11" />
	<path
   d="M 74.361,4.839 C 72.384,4.839 72,7.259 71.469,6.846 L 71.056,6.521 C 70.968,6.403 70.909,6.255 70.909,6.108 L 70.88,1.003 C 70.88,0.472 71.116,0.354 71.706,0.354 L 84.188,0.354 L 84.188,2.331 C 82.683,5.666 77.076,17.086 75.306,21.011 L 70.142,21.011 C 73.063,16.555 78.227,7.584 79.614,4.84 L 74.361,4.84 L 74.361,4.839 z "
   id="path13" />
</g>
</svg>