<?xml version="1.0" encoding="utf-8"?>
<!-- Generator: Adobe Illustrator 15.0.0, SVG Export Plug-In . SVG Version: 6.00 Build 0)  -->
<!DOCTYPE svg PUBLIC "-//W3C//DTD SVG 1.1//EN" "http://www.w3.org/Graphics/SVG/1.1/DTD/svg11.dtd">
<svg version="1.1" id="Layer_1" xmlns="http://www.w3.org/2000/svg" xmlns:xlink="http://www.w3.org/1999/xlink" x="0px" y="0px"
	 width="72px" height="72px" viewBox="0 0 72 72" enable-background="new 0 0 72 72" xml:space="preserve">
<rect width="72" height="72"/>
<g>
	<path fill="#FFFFFF" d="M34.055,14.242v2.039H23.719v9.477h-7.266v-9.477H6.07v-2.039H34.055z"/>
	<path fill="#FFFFFF" d="M58.488,14.242h7.5L54.21,25.758h-6.819L35.707,14.242h7.711l7.5,8.742L58.488,14.242z"/>
	<path fill="#FFFFFF" d="M44.522,37.953c-0.57-1.966-1.962-3.34-4.175-4.121c-1.237-0.43-2.612-0.645-4.126-0.645
		c-2.897,0-5.277,0.874-7.142,2.622c-1.863,1.748-2.795,4.376-2.795,7.885c0,3.535,1.009,6.037,3.027,7.505
		c2.018,1.469,4.312,2.203,6.885,2.203c2.522,0,4.59-0.579,6.201-1.737s2.604-2.675,2.979-4.552h-8.325v-4.805h14.99v15.449h-4.98
		l-0.757-3.594c-1.449,1.361-2.751,2.32-3.906,2.878c-1.986,0.972-4.428,1.458-7.324,1.458c-4.77,0-8.676-1.32-11.719-3.963
		c-3.174-2.654-4.761-6.284-4.761-10.891c0-4.658,1.603-8.393,4.81-11.204c3.206-2.811,7.446-4.216,12.72-4.216
		c4.573,0,8.248,0.928,11.022,2.783c2.775,1.855,4.366,4.17,4.773,6.943H44.522z"/>
</g>
</svg>
