<?xml version="1.0" encoding="utf-8"?>
<!-- Generator: Adobe Illustrator 15.0.0, SVG Export Plug-In . SVG Version: 6.00 Build 0)  -->
<!DOCTYPE svg PUBLIC "-//W3C//DTD SVG 1.1//EN" "http://www.w3.org/Graphics/SVG/1.1/DTD/svg11.dtd">
<svg version="1.1" id="Layer_1" xmlns="http://www.w3.org/2000/svg" xmlns:xlink="http://www.w3.org/1999/xlink" x="0px" y="0px"
	 width="72px" height="72px" viewBox="0 0 72 72" enable-background="new 0 0 72 72" xml:space="preserve">
<rect width="72" height="72"/>
<g>
	<path fill="#FFFFFF" d="M34.055,14.242v2.039H23.719v9.477h-7.266v-9.477H6.07v-2.039H34.055z"/>
	<path fill="#FFFFFF" d="M58.488,14.242h7.5L54.21,25.758h-6.819L35.707,14.242h7.711l7.5,8.742L58.488,14.242z"/>
	<path fill="#FFFFFF" d="M27.475,28.969h10.171v28.789h-6.587V38.285c0-0.56,0.008-1.344,0.022-2.354
		c0.016-1.009,0.023-1.787,0.023-2.334l-6.41,24.16h-6.87l-6.364-24.16c0,0.547,0.008,1.325,0.023,2.334
		c0.015,1.009,0.022,1.794,0.022,2.354v19.473H4.919V28.969h10.286l6.157,22.637L27.475,28.969z"/>
	<path fill="#FFFFFF" d="M51.509,28.969h7.998l11.968,28.789H63.81l-2.231-5.918H49.12l-2.293,5.918h-7.394L51.509,28.969z
		 M51.043,46.879h8.664l-4.273-11.328L51.043,46.879z"/>
</g>
</svg>
